<svg version="1.1" id="Layer_1" xmlns="http://www.w3.org/2000/svg" xmlns:xlink="http://www.w3.org/1999/xlink" x="0px" y="0px"
	 width="100%" viewBox="0 0 1024 1024" enable-background="new 0 0 1024 1024" xml:space="preserve">
<path fill="#000000" opacity="1.000000" stroke="none" 
	d="
M162.778107,555.743469 
	C161.040848,536.232605 159.628540,517.120483 160.951630,498.054871 
	C161.680008,487.558899 162.624512,477.003357 164.136154,466.507355 
	C165.500381,457.035065 167.287918,447.642120 168.883316,438.226410 
	C170.365356,429.479889 172.643356,420.833496 175.094543,412.293335 
	C179.750900,396.069977 185.916992,380.375336 192.673920,364.917511 
	C201.626968,344.435577 212.949600,325.186523 225.968658,307.173065 
	C240.382996,287.229065 256.369873,268.371002 274.765930,251.868073 
	C301.753845,227.657471 331.271912,207.137863 364.364929,191.972153 
	C383.055267,183.406830 402.377136,176.566833 422.141876,171.118530 
	C433.218781,168.065094 444.812164,166.878189 456.018250,164.402618 
	C472.347778,160.795242 489.002930,161.797043 505.335754,159.137924 
	C508.246155,158.664093 511.351044,158.831299 514.295288,159.228058 
	C521.574219,160.208939 528.855164,160.682114 536.203003,160.761505 
	C546.465088,160.872375 556.544250,162.705933 566.668518,164.308807 
	C574.488892,165.546951 582.284851,166.721237 590.031128,168.433701 
	C600.664917,170.784454 611.137268,173.718994 621.498718,176.957733 
	C640.498169,182.896439 658.861511,190.564041 676.476440,199.814697 
	C710.911682,217.898697 741.746582,240.821503 768.720947,268.969055 
	C803.093872,304.837036 828.743774,346.076355 845.614441,392.731598 
	C854.396667,417.018585 860.174866,442.042969 863.532532,467.714722 
	C866.134155,487.606079 867.168152,507.533020 866.156311,527.460327 
	C862.414917,601.141541 840.194092,668.446350 794.971375,727.355164 
	C741.896118,796.492798 672.719849,840.505676 587.556519,859.435120 
	C555.965271,866.457031 523.985901,868.854492 491.829132,866.930786 
	C444.637451,864.107544 399.799835,851.776794 357.422791,830.703003 
	C316.069000,810.138062 280.055206,782.541260 249.338333,748.101624 
	C222.655167,718.184448 201.868225,684.562683 186.678497,647.429382 
	C180.467834,632.246582 175.206619,616.721497 171.351425,600.866028 
	C167.778503,586.171387 164.737656,571.270630 162.778107,555.743469 
M200.116806,602.576111 
	C206.336609,624.777161 214.762650,646.171692 225.697159,666.404419 
	C244.799774,701.751038 269.489868,732.748657 300.001373,759.079712 
	C360.189789,811.021545 430.034302,837.898132 509.412537,839.488098 
	C533.022888,839.961121 556.553040,837.531250 579.736511,832.570007 
	C596.940308,828.888428 613.657471,823.432068 630.575439,818.709778 
	C635.979126,817.201416 640.403320,813.609009 645.421204,811.307556 
	C679.622070,795.621643 710.958008,775.707520 738.242737,749.595520 
	C763.618530,725.310486 784.714111,697.794312 800.950317,666.676208 
	C819.674438,630.789612 831.311768,592.708862 835.852539,552.396973 
	C838.770264,526.494019 839.355591,500.614716 836.498352,474.747284 
	C833.679199,449.225403 827.636353,424.372925 818.659485,400.292908 
	C790.849487,325.693848 742.195007,268.663513 673.140747,229.281189 
	C614.943542,196.090820 552.071411,183.395416 485.419952,188.176529 
	C458.235046,190.126602 431.788483,195.471619 406.077576,204.395004 
	C345.753143,225.331512 295.970673,261.097473 256.848145,311.514923 
	C215.576401,364.702057 193.034393,425.244598 188.576355,492.217773 
	C186.112915,529.226135 189.233200,565.991028 200.116806,602.576111 
z"/>
<path fill="#000000" opacity="1.000000" stroke="none" 
	d="
M473.999939,524.318237 
	C416.187286,524.311890 358.874634,524.306213 301.561981,524.297180 
	C294.394867,524.296082 294.537109,524.264038 293.368835,517.337219 
	C292.445038,511.859833 292.899231,506.367859 292.617249,500.889069 
	C292.444275,497.527802 293.994659,496.412354 297.090515,496.642273 
	C298.415771,496.740692 299.754944,496.649323 301.087769,496.649353 
	C398.219391,496.651855 495.351074,496.695038 592.482666,496.621185 
	C610.134705,496.607758 627.785828,495.999817 645.438538,495.927368 
	C649.774719,495.909546 651.107239,494.161041 650.644897,490.223511 
	C650.295959,487.252289 649.833130,484.277924 649.747437,481.295593 
	C649.550232,474.428223 652.207825,472.469910 658.658020,474.569855 
	C665.403809,476.766052 671.095520,480.896301 676.941162,484.714600 
	C688.087158,491.995117 699.284790,499.204865 710.245972,506.756165 
	C714.850281,509.928162 714.942505,512.879700 710.441284,515.702820 
	C693.946960,526.047974 678.273499,537.725891 661.006470,546.802124 
	C652.270020,551.394409 650.663635,550.175049 650.659241,540.439453 
	C650.657532,536.607483 650.421082,532.756531 650.723816,528.948547 
	C651.080505,524.462952 649.196838,523.231506 644.924133,523.285278 
	C619.439148,523.605896 593.952942,523.359680 568.462952,523.813110 
	C537.148865,524.370300 505.821533,524.183289 473.999939,524.318237 
z"/>
<path fill="#000000" opacity="1.000000" stroke="none" 
	d="
M646.143433,693.612061 
	C653.625000,693.118103 660.380310,691.705322 666.391907,687.660645 
	C672.568726,683.504883 676.160950,672.880798 673.565796,666.227539 
	C672.750793,664.138062 671.017090,664.393860 669.390320,664.384705 
	C663.059021,664.349182 656.726074,664.274780 650.396667,664.384766 
	C647.348938,664.437622 645.593628,663.504822 645.770813,660.155701 
	C646.147034,653.042908 646.471741,645.927429 646.834961,638.455444 
	C665.698853,637.838135 684.096375,636.465210 702.556274,636.670837 
	C704.533875,636.692871 706.293823,636.952148 706.274658,639.537842 
	C706.168579,653.856628 707.272156,668.230286 705.732056,682.479248 
	C704.347473,695.289490 696.391602,704.289795 686.041565,711.185730 
	C655.404663,731.598022 603.065063,725.465149 585.442627,682.244751 
	C573.626892,653.265625 573.648499,623.897278 587.876343,595.812622 
	C598.859985,574.131775 617.971863,563.690918 642.200684,562.651367 
	C654.410583,562.127502 666.014099,564.547302 677.021118,569.829346 
	C693.243530,577.614014 701.300049,591.422058 705.247192,608.230164 
	C706.010498,611.480835 704.987366,613.258850 701.298706,613.311646 
	C693.649475,613.421021 686.029358,614.089783 678.468201,615.274658 
	C675.229309,615.782227 673.586731,614.450317 672.710754,611.365540 
	C668.886597,597.899170 659.182434,591.328918 645.896667,590.572754 
	C633.204102,589.850281 623.565674,595.753784 617.219421,606.966553 
	C613.274231,613.937012 611.281494,621.583923 610.659973,629.303711 
	C609.605896,642.395508 609.534119,655.567932 613.789551,668.331665 
	C618.931580,683.754639 629.640381,692.040466 646.143433,693.612061 
z"/>
<path fill="#000000" opacity="1.000000" stroke="none" 
	d="
M351.664551,618.362305 
	C361.238007,624.084473 371.716370,626.396729 381.828552,629.650208 
	C392.961578,633.231995 404.049591,636.752686 412.693848,645.260681 
	C433.469757,665.709229 428.710236,700.809387 403.119995,714.709961 
	C389.451569,722.134583 374.669312,723.229187 359.484467,721.818115 
	C350.377930,720.971863 341.993408,718.228577 334.086426,713.627869 
	C318.209839,704.390076 312.468353,689.765930 311.262878,672.254517 
	C321.015472,670.590698 330.483643,670.705994 339.932068,670.506714 
	C342.862549,670.444885 342.749084,672.921509 343.288910,674.653442 
	C348.371307,690.959412 361.076355,698.016235 377.685089,693.673889 
	C386.264954,691.430786 391.921844,685.731140 392.537415,678.709351 
	C393.111145,672.164612 388.462891,665.382568 380.573639,661.829285 
	C370.851440,657.450439 360.458527,654.934998 350.445984,651.349182 
	C341.135498,648.014893 332.047180,644.251465 324.891998,637.167603 
	C307.441956,619.891541 308.756836,591.463379 327.614594,575.643311 
	C350.813965,556.181152 392.773010,559.144043 412.764099,581.818848 
	C420.141907,590.186951 423.784668,600.179810 424.517059,611.875061 
	C414.740723,612.534180 405.348236,613.227661 395.946564,613.758789 
	C393.606018,613.890991 393.768982,611.603088 393.290009,610.130737 
	C391.352509,604.175354 388.920410,598.529968 383.313110,595.057495 
	C374.023285,589.304382 364.119537,589.476318 354.650330,593.786621 
	C344.347595,598.476440 343.157501,609.758545 351.664551,618.362305 
z"/>
<path fill="#000000" opacity="1.000000" stroke="none" 
	d="
M544.329468,565.783691 
	C554.903687,565.779541 565.016357,565.779541 574.828918,565.779541 
	C575.878235,568.189392 574.965881,569.682861 574.433289,571.234070 
	C558.119263,618.743347 541.723999,666.225037 525.619751,713.805359 
	C523.971680,718.674500 521.648926,720.333618 516.717224,720.108459 
	C507.070404,719.667847 497.402130,719.628113 487.742065,719.589966 
	C484.770996,719.578247 483.386353,718.470459 482.497986,715.568909 
	C467.642395,667.045959 450.138947,619.416016 433.757355,571.406982 
	C432.097534,566.542603 432.569000,565.858765 437.691589,565.813843 
	C446.356537,565.737793 455.027222,565.921326 463.685608,565.663635 
	C467.689575,565.544434 469.643066,566.877625 470.668365,570.870178 
	C479.516907,605.326904 490.376129,639.201782 500.599213,673.260193 
	C501.188446,675.223328 501.154022,677.632507 503.328644,678.998596 
	C505.599945,678.106873 505.612701,675.845093 506.139801,674.082214 
	C516.381042,639.833008 526.770020,605.630066 537.806519,571.626770 
	C538.788025,568.602722 539.457397,565.252991 544.329468,565.783691 
z"/>
<path fill="#000000" opacity="1.000000" stroke="none" 
	d="
M484.625885,337.926392 
	C471.717224,338.712555 459.268616,339.588837 446.804657,340.003387 
	C442.485352,340.147034 440.921600,341.462219 441.168640,345.868103 
	C441.494476,351.678528 441.402893,357.539001 441.054260,363.351776 
	C440.798370,367.618683 442.455811,368.780884 446.512817,368.721252 
	C459.673340,368.527771 472.840637,368.784973 486.000732,368.577240 
	C490.134338,368.511993 491.641693,369.854645 491.412811,374.001282 
	C491.128571,379.150909 491.115967,384.341766 491.417847,389.489471 
	C491.669861,393.786041 490.287476,395.377747 485.804840,395.290924 
	C472.812988,395.039337 459.810303,395.354950 446.818054,395.113892 
	C442.391266,395.031769 441.021851,396.515472 441.155273,400.875916 
	C441.353333,407.350250 441.785889,413.882507 440.554016,420.322723 
	C439.807312,424.226593 441.208832,425.640411 445.265259,425.724304 
	C460.434082,426.038086 475.558685,424.915863 490.706818,424.677917 
	C498.313141,424.558411 498.297363,424.645325 498.340027,432.205536 
	C498.366333,436.870026 498.028748,441.590881 498.640259,446.181763 
	C499.199554,450.380280 497.819824,451.389648 493.907654,451.409088 
	C470.422394,451.525604 446.952606,452.802551 423.458344,452.399017 
	C422.458954,452.381836 421.458679,452.390930 420.459198,452.408020 
	C412.338470,452.546844 411.839996,452.217712 411.764038,443.886963 
	C411.621246,428.225372 411.670319,412.561920 411.658813,396.899261 
	C411.639191,370.239258 411.632050,343.579224 411.631866,316.919220 
	C411.631866,315.779449 411.754211,314.639679 411.813660,313.603363 
	C413.604919,312.182831 415.508514,312.683167 417.271942,312.680969 
	C441.932465,312.650116 466.594025,312.786591 491.252655,312.573059 
	C496.095581,312.531128 497.769928,314.003326 497.433838,318.810303 
	C497.109711,323.445465 497.264984,328.148407 497.640686,332.786682 
	C497.909790,336.109039 496.777924,337.356110 493.541382,337.340118 
	C490.721802,337.326141 487.900482,337.656769 484.625885,337.926392 
z"/>
<path fill="#000000" opacity="1.000000" stroke="none" 
	d="
M547.543823,317.400574 
	C554.886597,330.475159 562.035889,343.220093 569.250793,356.082123 
	C571.827820,354.625458 572.506653,352.285736 573.600891,350.333771 
	C579.544250,339.732025 585.578491,329.173492 591.178223,318.390656 
	C593.374878,314.160767 595.952209,312.284149 600.860962,312.540344 
	C608.800842,312.954712 616.778137,312.651825 624.439453,312.651825 
	C625.794678,314.875366 624.375854,315.976227 623.688538,317.178864 
	C612.372131,336.980408 601.116638,356.818176 589.600220,376.503082 
	C587.277344,380.473511 587.342041,383.493561 589.774902,387.404449 
	C601.909668,406.911774 613.762451,426.594513 625.717712,446.213562 
	C626.650879,447.744904 627.810425,449.179260 627.929626,451.462280 
	C622.579773,452.772369 617.178772,451.207031 612.094116,452.177673 
	C599.135925,454.651367 591.680664,449.493256 586.676025,437.459595 
	C582.505005,427.430420 576.168884,418.301636 570.292664,407.889862 
	C567.842224,412.145142 565.814209,415.500580 563.946106,418.942810 
	C558.785400,428.451996 553.606506,437.953339 548.625916,447.556915 
	C547.232483,450.243744 545.594910,451.458344 542.462585,451.444580 
	C535.309204,451.413147 528.154968,451.846375 520.999084,451.947479 
	C518.926025,451.976746 516.695679,452.601898 514.743286,451.205811 
	C514.274902,449.075592 515.715210,447.698669 516.582886,446.174530 
	C527.785400,426.496613 538.938477,406.789398 550.336792,387.225189 
	C552.454712,383.589935 552.393982,380.873260 550.305481,377.222168 
	C539.148071,357.717316 527.396606,338.545532 517.070007,318.572052 
	C516.268005,317.020874 514.860352,315.602966 515.376587,312.685852 
	C523.497437,312.685852 531.735901,312.852295 539.962402,312.610016 
	C543.635986,312.501831 546.043152,313.664429 547.543823,317.400574 
z"/>
<path fill="#000000" opacity="1.000000" stroke="none" 
	d="
M304.072144,311.957214 
	C332.559509,311.974091 360.556396,311.986542 388.553284,312.012878 
	C395.285187,312.019196 395.318481,312.061981 395.340637,318.594482 
	C395.357605,323.593994 395.204315,328.598724 395.390106,333.591339 
	C395.511932,336.865173 394.532532,338.321106 390.989288,338.573303 
	C382.662079,339.165894 374.338104,339.070435 366.010773,339.079681 
	C359.274994,339.087158 359.267883,339.026489 359.271759,345.581512 
	C359.286926,371.245911 359.287567,396.910370 359.335907,422.574707 
	C359.352173,431.225769 357.711884,439.807434 358.322937,448.479156 
	C358.519012,451.261475 357.141113,452.369080 354.434937,452.309448 
	C348.438385,452.177246 342.437134,452.002869 336.442657,452.111847 
	C331.837708,452.195587 330.552948,450.142761 330.573181,445.704529 
	C330.722961,412.874695 330.652130,380.043915 330.649750,347.213409 
	C330.649139,338.905609 330.649689,339.008423 322.574554,339.158783 
	C315.245026,339.295258 307.910675,339.173065 300.578461,339.167969 
	C296.852814,339.165375 294.981384,337.709686 294.508881,333.607056 
	C293.934967,328.623871 293.620361,323.672638 293.652924,318.677704 
	C293.693085,312.516174 294.098267,312.093658 300.081818,311.961700 
	C301.247894,311.935974 302.415009,311.957947 304.072144,311.957214 
z"/>
<path fill="#000000" opacity="1.000000" stroke="none" 
	d="
M673.021057,416.999939 
	C673.223694,392.508606 673.356934,368.516052 673.719482,344.526917 
	C673.786499,340.090118 672.795166,338.361908 667.849976,338.620361 
	C659.382446,339.062897 650.863281,338.404266 642.372681,338.568695 
	C638.508423,338.643524 637.470703,337.116852 637.606323,333.563293 
	C637.809509,328.237885 637.907471,322.883118 637.575562,317.570465 
	C637.295654,313.089417 639.071838,311.845856 643.342651,311.875397 
	C668.007324,312.046051 692.673401,311.996735 717.339050,312.026031 
	C722.338806,312.031982 727.340088,312.138550 732.337708,312.042694 
	C735.842651,311.975433 737.522461,313.218872 737.374268,317.008179 
	C737.146484,322.832764 737.240723,328.673004 737.317566,334.505066 
	C737.353455,337.233185 736.249878,338.389832 733.480957,338.412140 
	C724.654846,338.483185 715.813538,339.074890 707.011353,338.694489 
	C702.578857,338.502930 701.228271,339.359344 701.257019,343.928467 
	C701.439148,372.926453 701.352051,401.926178 701.342529,430.925323 
	C701.340881,435.758301 701.334717,440.592255 701.239441,445.423950 
	C701.137329,450.602173 699.816040,451.817444 694.554626,451.710632 
	C689.558777,451.609161 684.563721,451.469086 679.568726,451.330963 
	C674.117004,451.180206 672.709900,449.894928 672.717529,444.495178 
	C672.730347,435.496643 672.917175,426.498322 673.021057,416.999939 
z"/>
</svg>